<svg width="220" height="52" viewBox="0 0 220 52" fill="none" xmlns="http://www.w3.org/2000/svg" role="img" aria-label="Nipoon Kalam Logo">
  <defs>
    <linearGradient id="g1" x1="0" y1="0" x2="1" y2="1">
      <stop offset="0%" stop-color="#FF73C3"/>
      <stop offset="100%" stop-color="#53D9FF"/>
    </linearGradient>
  </defs>
  <rect x="2" y="4" width="44" height="44" rx="16" fill="url(#g1)"/>
  <circle cx="24" cy="26" r="9" fill="white" fill-opacity="0.95"/>
  <path d="M66 22.5H72.4L82.1 37V22.5H88V47H81.7L71.9 32.4V47H66V22.5Z" fill="#13233A"/>
  <path d="M93.2 47V22.5H99.2V47H93.2Z" fill="#13233A"/>
  <path d="M104.4 47V22.5H110.4V32.5L118.6 22.5H125.8L117.2 32.7L126.1 47H119L113.2 37.2L110.4 40.5V47H104.4Z" fill="#13233A"/>
  <path d="M130.3 47V22.5H136.3V47H130.3Z" fill="#13233A"/>
  <text x="146" y="31" fill="#13233A" font-size="11" font-family="Inter, Arial, sans-serif" font-weight="700">IT & AI SERVICES</text>
</svg>
